<svg width="21" height="20" viewBox="0 0 21 20" fill="none" xmlns="http://www.w3.org/2000/svg">
<path d="M4.5 19H7.5M13.5 19H16.5M16 4.5V12.5M1.5 4.2L1.5 12.8C1.5 13.9201 1.5 14.4802 1.71799 14.908C1.90973 15.2843 2.21569 15.5903 2.59202 15.782C3.01984 16 3.57989 16 4.7 16L16.3 16C17.4201 16 17.9802 16 18.408 15.782C18.7843 15.5903 19.0903 15.2843 19.282 14.908C19.5 14.4802 19.5 13.9201 19.5 12.8V4.2C19.5 3.0799 19.5 2.51984 19.282 2.09202C19.0903 1.7157 18.7843 1.40974 18.408 1.21799C17.9802 1 17.4201 1 16.3 1L4.7 1C3.5799 1 3.01984 1 2.59202 1.21799C2.2157 1.40973 1.90973 1.71569 1.71799 2.09202C1.5 2.51984 1.5 3.07989 1.5 4.2ZM10 8.5C10 9.88071 8.88071 11 7.5 11C6.11929 11 5 9.88071 5 8.5C5 7.11929 6.11929 6 7.5 6C8.88071 6 10 7.11929 10 8.5Z" stroke="white" stroke-width="2" stroke-linecap="round" stroke-linejoin="round"/>
</svg>
